<svg width="139" height="174" viewBox="0 0 139 174" fill="none" xmlns="http://www.w3.org/2000/svg" style="" class="">
<path d="M70.5169 5.09175L9.12543 42.1875M33.453 28.0913L68.017 49.0913L102.017 28.0913L126.502 41.0252L128.017 108.591L97.017 127.091L98.0169 91.0912L68.017 108.591L39.017 91.0912L39.017 127.091L9.12542 110.591L9.12543 40.1875M9.12543 43.1875L68.017 80.0912L125.017 45.5912L125.017 41.0912L98.5169 24.5912L92.517 21.0457L65.517 5.09175" stroke="url(#paint0_linear)" stroke-width="10" class="IToukuoA_0"></path>
<path d="M11.7578 169H9.75586V161.998C9.75586 161.308 9.62565 160.66 9.36523 160.055C9.10482 159.449 8.74674 158.922 8.29102 158.473C7.8418 158.017 7.3112 157.659 6.69922 157.398C6.09375 157.132 5.44596 156.998 4.75586 156.998H3.68164V169H1.67969V154.996H4.75586C5.39388 154.996 6.00586 155.081 6.5918 155.25C7.18424 155.413 7.73763 155.644 8.25195 155.943C8.76628 156.243 9.23503 156.601 9.6582 157.018C10.0814 157.434 10.4492 157.896 10.7617 158.404C11.0677 157.896 11.4323 157.434 11.8555 157.018C12.2786 156.601 12.7474 156.243 13.2617 155.943C13.776 155.644 14.3262 155.413 14.9121 155.25C15.5046 155.081 16.1198 154.996 16.7578 154.996H19.8438V169H17.8418V156.998H16.7578C16.0677 156.998 15.4199 157.132 14.8145 157.398C14.209 157.659 13.6784 158.017 13.2227 158.473C12.7734 158.922 12.4154 159.449 12.1484 160.055C11.888 160.66 11.7578 161.308 11.7578 161.998V169ZM25.625 167.496C25.625 167.704 25.5827 167.9 25.498 168.082C25.4199 168.264 25.3125 168.424 25.1758 168.561C25.0391 168.697 24.8796 168.805 24.6973 168.883C24.515 168.961 24.3229 169 24.1211 169C23.9128 169 23.7174 168.961 23.5352 168.883C23.3594 168.805 23.2031 168.697 23.0664 168.561C22.9297 168.424 22.8223 168.264 22.7441 168.082C22.666 167.9 22.627 167.704 22.627 167.496C22.627 167.294 22.666 167.102 22.7441 166.92C22.8223 166.738 22.9297 166.578 23.0664 166.441C23.2031 166.305 23.3594 166.197 23.5352 166.119C23.7174 166.041 23.9128 166.002 24.1211 166.002C24.3229 166.002 24.515 166.041 24.6973 166.119C24.8796 166.197 25.0391 166.305 25.1758 166.441C25.3125 166.578 25.4199 166.738 25.498 166.92C25.5827 167.102 25.625 167.294 25.625 167.496ZM52.0605 159.996C52.0605 160.686 51.9271 161.337 51.6602 161.949C51.3997 162.555 51.0417 163.085 50.5859 163.541C50.1367 163.99 49.6094 164.345 49.0039 164.605C48.3984 164.866 47.7507 164.996 47.0605 164.996H39.0234V163.023H47.0605C47.4772 163.023 47.8678 162.945 48.2324 162.789C48.597 162.626 48.9128 162.408 49.1797 162.135C49.4531 161.861 49.668 161.542 49.8242 161.178C49.9805 160.807 50.0586 160.413 50.0586 159.996C50.0586 159.579 49.9805 159.189 49.8242 158.824C49.668 158.46 49.4531 158.144 49.1797 157.877C48.9128 157.604 48.597 157.389 48.2324 157.232C47.8678 157.076 47.4772 156.998 47.0605 156.998H37.9004V169H35.8984V154.996H47.0605C47.7507 154.996 48.3984 155.13 49.0039 155.396C49.6094 155.657 50.1367 156.015 50.5859 156.471C51.0417 156.92 51.3997 157.447 51.6602 158.053C51.9271 158.658 52.0605 159.306 52.0605 159.996ZM67.6172 169H54.2383V154.996H56.2402V166.998H67.6172V169ZM85.4297 169H83.4277V164.996H72.2559V163.004H83.4277V156.998H76.25C75.5664 156.998 74.9219 157.132 74.3164 157.398C73.7109 157.659 73.1836 158.017 72.7344 158.473C72.2852 158.922 71.9271 159.449 71.6602 160.055C71.3997 160.66 71.2695 161.308 71.2695 161.998V169H69.2676V161.998C69.2676 161.354 69.349 160.735 69.5117 160.143C69.681 159.544 69.9154 158.987 70.2148 158.473C70.5208 157.952 70.8854 157.48 71.3086 157.057C71.7383 156.627 72.2103 156.259 72.7246 155.953C73.2454 155.647 73.8021 155.413 74.3945 155.25C74.987 155.081 75.6055 154.996 76.25 154.996H85.4297V169ZM103.447 169H94.4336C93.4635 169 92.5814 168.818 91.7871 168.453C90.9928 168.089 90.3125 167.59 89.7461 166.959C89.1862 166.327 88.7533 165.585 88.4473 164.732C88.1413 163.88 87.9883 162.968 87.9883 161.998C87.9883 161.035 88.1413 160.13 88.4473 159.283C88.7533 158.43 89.1862 157.688 89.7461 157.057C90.3125 156.419 90.9928 155.917 91.7871 155.553C92.5814 155.182 93.4635 154.996 94.4336 154.996H103.447V156.998H94.4336C93.7435 156.998 93.1217 157.132 92.5684 157.398C92.0215 157.659 91.556 158.017 91.1719 158.473C90.7943 158.922 90.5013 159.449 90.293 160.055C90.0911 160.66 89.9902 161.308 89.9902 161.998C89.9902 162.688 90.0911 163.339 90.293 163.951C90.5013 164.557 90.7943 165.087 91.1719 165.543C91.556 165.992 92.0215 166.347 92.5684 166.607C93.1217 166.868 93.7435 166.998 94.4336 166.998H103.447V169ZM120.361 169H105.879V154.996H120.361V156.998H107.881V166.998H120.361V169ZM118.662 163.004H108.877V161.002H118.662V163.004ZM138.311 164.996C138.311 165.556 138.206 166.08 137.998 166.568C137.79 167.05 137.503 167.473 137.139 167.838C136.781 168.196 136.357 168.479 135.869 168.688C135.387 168.896 134.87 169 134.316 169H122.148V166.998H134.316C134.596 166.998 134.857 166.946 135.098 166.842C135.339 166.738 135.547 166.594 135.723 166.412C135.905 166.23 136.048 166.018 136.152 165.777C136.257 165.53 136.309 165.27 136.309 164.996C136.309 164.723 136.257 164.465 136.152 164.225C136.048 163.984 135.905 163.772 135.723 163.59C135.547 163.408 135.339 163.264 135.098 163.16C134.857 163.056 134.596 163.004 134.316 163.004H126.152C125.605 163.004 125.088 162.9 124.6 162.691C124.111 162.483 123.685 162.2 123.32 161.842C122.962 161.477 122.676 161.051 122.461 160.562C122.253 160.074 122.148 159.553 122.148 159C122.148 158.453 122.253 157.936 122.461 157.447C122.676 156.959 122.962 156.536 123.32 156.178C123.685 155.813 124.111 155.527 124.6 155.318C125.088 155.104 125.605 154.996 126.152 154.996H137.314V156.998H126.152C125.879 156.998 125.618 157.05 125.371 157.154C125.13 157.258 124.919 157.402 124.736 157.584C124.554 157.766 124.411 157.981 124.307 158.229C124.202 158.469 124.15 158.727 124.15 159C124.15 159.273 124.202 159.534 124.307 159.781C124.411 160.022 124.554 160.234 124.736 160.416C124.919 160.598 125.13 160.742 125.371 160.846C125.618 160.95 125.879 161.002 126.152 161.002H134.316C134.87 161.002 135.387 161.109 135.869 161.324C136.357 161.533 136.781 161.819 137.139 162.184C137.503 162.542 137.79 162.965 137.998 163.453C138.206 163.935 138.311 164.449 138.311 164.996Z" fill="url(#paint1_linear)" class="IToukuoA_1"></path>
<defs>
<linearGradient id="paint0_linear" x1="69" y1="9" x2="69" y2="127" gradientUnits="userSpaceOnUse">
<stop stop-color="#866EC7"></stop>
<stop offset="0.32687" stop-color="#8F71FF"></stop>
<stop offset="0.671875" stop-color="#82ACFF"></stop>
<stop offset="1" stop-color="#B7FBFF"></stop>
</linearGradient>
<linearGradient id="paint1_linear" x1="69.5" y1="150" x2="69.5" y2="174" gradientUnits="userSpaceOnUse">
<stop stop-color="#866EC7"></stop>
<stop offset="0.369792" stop-color="#8F71FF"></stop>
<stop offset="0.682292" stop-color="#82ACFF"></stop>
<stop offset="1" stop-color="#B7FBFF"></stop>
</linearGradient>
</defs>
<style data-made-with="vivus-instant">.IToukuoA_0{stroke-dasharray:737 739;stroke-dashoffset:738;animation:IToukuoA_draw 4000ms linear 0ms forwards;}.IToukuoA_1{stroke-dasharray:655 657;stroke-dashoffset:656;animation:IToukuoA_draw 4000ms linear 0ms forwards;}@keyframes IToukuoA_draw{100%{stroke-dashoffset:0;}}@keyframes IToukuoA_fade{0%{stroke-opacity:1;}95.1219512195122%{stroke-opacity:1;}100%{stroke-opacity:0;}}</style></svg>